<mxfile host="app.diagrams.net" modified="2024-05-28T10:16:54.702Z" agent="Mozilla/5.0 (Windows NT 10.0; Win64; x64) AppleWebKit/537.36 (KHTML, like Gecko) Chrome/125.0.0.0 Safari/537.36" version="24.4.4" etag="lt-ey9FH5zeT_1KHJGEN" type="github">
  <diagram name="Page-1" id="466euE4UjR9jeb5TKWTN">
    <mxGraphModel>
      <root>
        <mxCell id="0" />
        <mxCell id="1" parent="0" />
      </root>
    </mxGraphModel>
  </diagram>
</mxfile>
